name C:\Users\Graham\Documents\MATLAB\MOtoNMS_v2_2\MyData\ElaboratedData\S1\17-05-18\dynamicElaborations\rightStSt\\ET2\ET2.mot
datacolumns 19
datarows 12
range 2.00333 2.02167
endheader

time	    ground_force1_vx	    ground_force1_vy	    ground_force1_vz	    ground_force1_px	    ground_force1_py	    ground_force1_pz	    ground_force2_vx	    ground_force2_vy	    ground_force2_vz	    ground_force2_px	    ground_force2_py	    ground_force2_pz	    ground_torque1_x	    ground_torque1_y	    ground_torque1_z	    ground_torque2_x	    ground_torque2_y	    ground_torque2_z	
2.00333	          0.00000000	          0.00000000	          0.00000000	          0.00000000	          0.00000000	          0.00000000	        -34.12185633	        704.06063876	         42.28815580	          0.25126520	         -0.00000000	         -0.07430959	          0.00000000	          0.00000000	          0.00000000	          0.00000000	          1.61068788	         -0.00000000	
2.005	          0.00000000	          0.00000000	          0.00000000	          0.00000000	          0.00000000	          0.00000000	        -33.50422712	        702.86899012	         42.16158682	          0.24977249	         -0.00000000	         -0.07426583	          0.00000000	          0.00000000	          0.00000000	          0.00000000	          1.55713431	         -0.00000000	
2.00667	          0.00000000	          0.00000000	          0.00000000	          0.00000000	          0.00000000	          0.00000000	        -32.89059225	        701.76178371	         42.03954325	          0.24821664	         -0.00000000	         -0.07422669	          0.00000000	          0.00000000	          0.00000000	          0.00000000	          1.50050731	         -0.00000000	
2.00833	          0.00000000	          0.00000000	          0.00000000	          0.00000000	          0.00000000	          0.00000000	        -32.28107269	        700.73820363	         41.92178452	          0.24660214	         -0.00000000	         -0.07419190	          0.00000000	          0.00000000	          0.00000000	          0.00000000	          1.44107895	         -0.00000000	
2.01	          0.00000000	          0.00000000	          0.00000000	          0.00000000	          0.00000000	          0.00000000	        -31.67580375	        699.79722027	         41.80802973	          0.24493400	         -0.00000000	         -0.07416115	          0.00000000	          0.00000000	          0.00000000	          0.00000000	          1.37914506	         -0.00000000	
2.01167	          0.00000000	          0.00000000	          0.00000000	          0.00000000	          0.00000000	          0.00000000	        -31.07493139	        698.93760610	         41.69795928	          0.24321771	         -0.00000000	         -0.07413407	          0.00000000	          0.00000000	          0.00000000	          0.00000000	          1.31502152	         -0.00000000	
2.01333	          0.00000000	          0.00000000	          0.00000000	          0.00000000	          0.00000000	          0.00000000	        -30.47860846	        698.15795198	         41.59121696	          0.24145916	         -0.00000000	         -0.07411025	          0.00000000	          0.00000000	          0.00000000	          0.00000000	          1.24904039	         -0.00000000	
2.015	          0.00000000	          0.00000000	          0.00000000	          0.00000000	          0.00000000	          0.00000000	        -29.88699112	        697.45668389	         41.48741248	          0.23966460	         -0.00000000	         -0.07408927	          0.00000000	          0.00000000	          0.00000000	          0.00000000	          1.18154611	         -0.00000000	
2.01667	          0.00000000	          0.00000000	          0.00000000	          0.00000000	          0.00000000	          0.00000000	        -29.30023522	        696.83207999	         41.38612450	          0.23784059	         -0.00000000	         -0.07407064	          0.00000000	          0.00000000	          0.00000000	          0.00000000	          1.11289172	         -0.00000000	
2.01833	          0.00000000	          0.00000000	          0.00000000	          0.00000000	          0.00000000	          0.00000000	        -28.71849312	        696.28228787	         41.28690430	          0.23599390	         -0.00000000	         -0.07405388	          0.00000000	          0.00000000	          0.00000000	          0.00000000	          1.04343524	         -0.00000000	
2.02	          0.00000000	          0.00000000	          0.00000000	          0.00000000	          0.00000000	          0.00000000	        -28.14191068	        695.80534188	         41.18927999	          0.23413147	         -0.00000000	         -0.07403845	          0.00000000	          0.00000000	          0.00000000	          0.00000000	          0.97353627	         -0.00000000	
2.02167	          0.00000000	          0.00000000	          0.00000000	          0.00000000	          0.00000000	          0.00000000	        -27.57062458	        695.39918065	         41.09276134	          0.23226032	         -0.00000000	         -0.07402384	          0.00000000	          0.00000000	          0.00000000	          0.00000000	          0.90355282	         -0.00000000	
